<svg xmlns="http://www.w3.org/2000/svg" viewBox="0 0 200 200"><rect x="0" y="0" width="56" height="56" fill="#141c2c"/><rect x="8" y="8" width="40" height="40" fill="#fff"/><rect x="16" y="16" width="24" height="24" fill="#141c2c"/><rect x="144" y="0" width="56" height="56" fill="#141c2c"/><rect x="152" y="8" width="40" height="40" fill="#fff"/><rect x="160" y="16" width="24" height="24" fill="#141c2c"/><rect x="0" y="144" width="56" height="56" fill="#141c2c"/><rect x="8" y="152" width="40" height="40" fill="#fff"/><rect x="16" y="160" width="24" height="24" fill="#141c2c"/><rect x="72" y="0" width="8" height="8" fill="#141c2c"/><rect x="80" y="0" width="8" height="8" fill="#141c2c"/><rect x="88" y="0" width="8" height="8" fill="#141c2c"/><rect x="120" y="0" width="8" height="8" fill="#141c2c"/><rect x="128" y="0" width="8" height="8" fill="#141c2c"/><rect x="64" y="8" width="8" height="8" fill="#141c2c"/><rect x="72" y="8" width="8" height="8" fill="#141c2c"/><rect x="88" y="8" width="8" height="8" fill="#141c2c"/><rect x="96" y="8" width="8" height="8" fill="#141c2c"/><rect x="120" y="8" width="8" height="8" fill="#141c2c"/><rect x="72" y="16" width="8" height="8" fill="#141c2c"/><rect x="96" y="16" width="8" height="8" fill="#141c2c"/><rect x="104" y="16" width="8" height="8" fill="#141c2c"/><rect x="120" y="16" width="8" height="8" fill="#141c2c"/><rect x="128" y="16" width="8" height="8" fill="#141c2c"/><rect x="64" y="24" width="8" height="8" fill="#141c2c"/><rect x="120" y="24" width="8" height="8" fill="#141c2c"/><rect x="104" y="32" width="8" height="8" fill="#141c2c"/><rect x="112" y="32" width="8" height="8" fill="#141c2c"/><rect x="120" y="32" width="8" height="8" fill="#141c2c"/><rect x="128" y="32" width="8" height="8" fill="#141c2c"/><rect x="64" y="40" width="8" height="8" fill="#141c2c"/><rect x="72" y="40" width="8" height="8" fill="#141c2c"/><rect x="80" y="40" width="8" height="8" fill="#141c2c"/><rect x="96" y="40" width="8" height="8" fill="#141c2c"/><rect x="104" y="40" width="8" height="8" fill="#141c2c"/><rect x="112" y="40" width="8" height="8" fill="#141c2c"/><rect x="120" y="40" width="8" height="8" fill="#141c2c"/><rect x="80" y="48" width="8" height="8" fill="#141c2c"/><rect x="96" y="48" width="8" height="8" fill="#141c2c"/><rect x="104" y="48" width="8" height="8" fill="#141c2c"/><rect x="88" y="56" width="8" height="8" fill="#141c2c"/><rect x="96" y="56" width="8" height="8" fill="#141c2c"/><rect x="104" y="56" width="8" height="8" fill="#141c2c"/><rect x="112" y="56" width="8" height="8" fill="#141c2c"/><rect x="120" y="56" width="8" height="8" fill="#141c2c"/><rect x="8" y="64" width="8" height="8" fill="#141c2c"/><rect x="24" y="64" width="8" height="8" fill="#141c2c"/><rect x="48" y="64" width="8" height="8" fill="#141c2c"/><rect x="56" y="64" width="8" height="8" fill="#141c2c"/><rect x="72" y="64" width="8" height="8" fill="#141c2c"/><rect x="96" y="64" width="8" height="8" fill="#141c2c"/><rect x="104" y="64" width="8" height="8" fill="#141c2c"/><rect x="128" y="64" width="8" height="8" fill="#141c2c"/><rect x="136" y="64" width="8" height="8" fill="#141c2c"/><rect x="144" y="64" width="8" height="8" fill="#141c2c"/><rect x="168" y="64" width="8" height="8" fill="#141c2c"/><rect x="176" y="64" width="8" height="8" fill="#141c2c"/><rect x="184" y="64" width="8" height="8" fill="#141c2c"/><rect x="24" y="72" width="8" height="8" fill="#141c2c"/><rect x="56" y="72" width="8" height="8" fill="#141c2c"/><rect x="72" y="72" width="8" height="8" fill="#141c2c"/><rect x="80" y="72" width="8" height="8" fill="#141c2c"/><rect x="112" y="72" width="8" height="8" fill="#141c2c"/><rect x="128" y="72" width="8" height="8" fill="#141c2c"/><rect x="152" y="72" width="8" height="8" fill="#141c2c"/><rect x="176" y="72" width="8" height="8" fill="#141c2c"/><rect x="16" y="80" width="8" height="8" fill="#141c2c"/><rect x="24" y="80" width="8" height="8" fill="#141c2c"/><rect x="32" y="80" width="8" height="8" fill="#141c2c"/><rect x="64" y="80" width="8" height="8" fill="#141c2c"/><rect x="72" y="80" width="8" height="8" fill="#141c2c"/><rect x="96" y="80" width="8" height="8" fill="#141c2c"/><rect x="112" y="80" width="8" height="8" fill="#141c2c"/><rect x="136" y="80" width="8" height="8" fill="#141c2c"/><rect x="160" y="80" width="8" height="8" fill="#141c2c"/><rect x="176" y="80" width="8" height="8" fill="#141c2c"/><rect x="184" y="80" width="8" height="8" fill="#141c2c"/><rect x="8" y="88" width="8" height="8" fill="#141c2c"/><rect x="16" y="88" width="8" height="8" fill="#141c2c"/><rect x="40" y="88" width="8" height="8" fill="#141c2c"/><rect x="56" y="88" width="8" height="8" fill="#141c2c"/><rect x="64" y="88" width="8" height="8" fill="#141c2c"/><rect x="72" y="88" width="8" height="8" fill="#141c2c"/><rect x="88" y="88" width="8" height="8" fill="#141c2c"/><rect x="96" y="88" width="8" height="8" fill="#141c2c"/><rect x="104" y="88" width="8" height="8" fill="#141c2c"/><rect x="120" y="88" width="8" height="8" fill="#141c2c"/><rect x="144" y="88" width="8" height="8" fill="#141c2c"/><rect x="152" y="88" width="8" height="8" fill="#141c2c"/><rect x="168" y="88" width="8" height="8" fill="#141c2c"/><rect x="176" y="88" width="8" height="8" fill="#141c2c"/><rect x="24" y="96" width="8" height="8" fill="#141c2c"/><rect x="32" y="96" width="8" height="8" fill="#141c2c"/><rect x="40" y="96" width="8" height="8" fill="#141c2c"/><rect x="48" y="96" width="8" height="8" fill="#141c2c"/><rect x="88" y="96" width="8" height="8" fill="#141c2c"/><rect x="96" y="96" width="8" height="8" fill="#141c2c"/><rect x="104" y="96" width="8" height="8" fill="#141c2c"/><rect x="120" y="96" width="8" height="8" fill="#141c2c"/><rect x="128" y="96" width="8" height="8" fill="#141c2c"/><rect x="136" y="96" width="8" height="8" fill="#141c2c"/><rect x="144" y="96" width="8" height="8" fill="#141c2c"/><rect x="152" y="96" width="8" height="8" fill="#141c2c"/><rect x="160" y="96" width="8" height="8" fill="#141c2c"/><rect x="176" y="96" width="8" height="8" fill="#141c2c"/><rect x="0" y="104" width="8" height="8" fill="#141c2c"/><rect x="48" y="104" width="8" height="8" fill="#141c2c"/><rect x="64" y="104" width="8" height="8" fill="#141c2c"/><rect x="72" y="104" width="8" height="8" fill="#141c2c"/><rect x="80" y="104" width="8" height="8" fill="#141c2c"/><rect x="88" y="104" width="8" height="8" fill="#141c2c"/><rect x="104" y="104" width="8" height="8" fill="#141c2c"/><rect x="128" y="104" width="8" height="8" fill="#141c2c"/><rect x="168" y="104" width="8" height="8" fill="#141c2c"/><rect x="176" y="104" width="8" height="8" fill="#141c2c"/><rect x="16" y="112" width="8" height="8" fill="#141c2c"/><rect x="48" y="112" width="8" height="8" fill="#141c2c"/><rect x="64" y="112" width="8" height="8" fill="#141c2c"/><rect x="72" y="112" width="8" height="8" fill="#141c2c"/><rect x="96" y="112" width="8" height="8" fill="#141c2c"/><rect x="104" y="112" width="8" height="8" fill="#141c2c"/><rect x="120" y="112" width="8" height="8" fill="#141c2c"/><rect x="144" y="112" width="8" height="8" fill="#141c2c"/><rect x="176" y="112" width="8" height="8" fill="#141c2c"/><rect x="192" y="112" width="8" height="8" fill="#141c2c"/><rect x="0" y="120" width="8" height="8" fill="#141c2c"/><rect x="16" y="120" width="8" height="8" fill="#141c2c"/><rect x="24" y="120" width="8" height="8" fill="#141c2c"/><rect x="40" y="120" width="8" height="8" fill="#141c2c"/><rect x="72" y="120" width="8" height="8" fill="#141c2c"/><rect x="80" y="120" width="8" height="8" fill="#141c2c"/><rect x="88" y="120" width="8" height="8" fill="#141c2c"/><rect x="120" y="120" width="8" height="8" fill="#141c2c"/><rect x="128" y="120" width="8" height="8" fill="#141c2c"/><rect x="176" y="120" width="8" height="8" fill="#141c2c"/><rect x="192" y="120" width="8" height="8" fill="#141c2c"/><rect x="16" y="128" width="8" height="8" fill="#141c2c"/><rect x="24" y="128" width="8" height="8" fill="#141c2c"/><rect x="32" y="128" width="8" height="8" fill="#141c2c"/><rect x="48" y="128" width="8" height="8" fill="#141c2c"/><rect x="72" y="128" width="8" height="8" fill="#141c2c"/><rect x="88" y="128" width="8" height="8" fill="#141c2c"/><rect x="120" y="128" width="8" height="8" fill="#141c2c"/><rect x="128" y="128" width="8" height="8" fill="#141c2c"/><rect x="136" y="128" width="8" height="8" fill="#141c2c"/><rect x="144" y="128" width="8" height="8" fill="#141c2c"/><rect x="168" y="128" width="8" height="8" fill="#141c2c"/><rect x="192" y="128" width="8" height="8" fill="#141c2c"/><rect x="64" y="136" width="8" height="8" fill="#141c2c"/><rect x="72" y="136" width="8" height="8" fill="#141c2c"/><rect x="120" y="136" width="8" height="8" fill="#141c2c"/><rect x="128" y="136" width="8" height="8" fill="#141c2c"/><rect x="136" y="136" width="8" height="8" fill="#141c2c"/><rect x="176" y="136" width="8" height="8" fill="#141c2c"/><rect x="184" y="136" width="8" height="8" fill="#141c2c"/><rect x="192" y="136" width="8" height="8" fill="#141c2c"/><rect x="80" y="144" width="8" height="8" fill="#141c2c"/><rect x="96" y="144" width="8" height="8" fill="#141c2c"/><rect x="144" y="144" width="8" height="8" fill="#141c2c"/><rect x="160" y="144" width="8" height="8" fill="#141c2c"/><rect x="64" y="152" width="8" height="8" fill="#141c2c"/><rect x="80" y="152" width="8" height="8" fill="#141c2c"/><rect x="104" y="152" width="8" height="8" fill="#141c2c"/><rect x="128" y="152" width="8" height="8" fill="#141c2c"/><rect x="144" y="152" width="8" height="8" fill="#141c2c"/><rect x="152" y="152" width="8" height="8" fill="#141c2c"/><rect x="160" y="152" width="8" height="8" fill="#141c2c"/><rect x="168" y="152" width="8" height="8" fill="#141c2c"/><rect x="192" y="152" width="8" height="8" fill="#141c2c"/><rect x="72" y="160" width="8" height="8" fill="#141c2c"/><rect x="104" y="160" width="8" height="8" fill="#141c2c"/><rect x="120" y="160" width="8" height="8" fill="#141c2c"/><rect x="136" y="160" width="8" height="8" fill="#141c2c"/><rect x="144" y="160" width="8" height="8" fill="#141c2c"/><rect x="152" y="160" width="8" height="8" fill="#141c2c"/><rect x="168" y="160" width="8" height="8" fill="#141c2c"/><rect x="192" y="160" width="8" height="8" fill="#141c2c"/><rect x="72" y="168" width="8" height="8" fill="#141c2c"/><rect x="88" y="168" width="8" height="8" fill="#141c2c"/><rect x="136" y="168" width="8" height="8" fill="#141c2c"/><rect x="144" y="168" width="8" height="8" fill="#141c2c"/><rect x="160" y="168" width="8" height="8" fill="#141c2c"/><rect x="168" y="168" width="8" height="8" fill="#141c2c"/><rect x="192" y="168" width="8" height="8" fill="#141c2c"/><rect x="64" y="176" width="8" height="8" fill="#141c2c"/><rect x="72" y="176" width="8" height="8" fill="#141c2c"/><rect x="80" y="176" width="8" height="8" fill="#141c2c"/><rect x="88" y="176" width="8" height="8" fill="#141c2c"/><rect x="96" y="176" width="8" height="8" fill="#141c2c"/><rect x="104" y="176" width="8" height="8" fill="#141c2c"/><rect x="144" y="176" width="8" height="8" fill="#141c2c"/><rect x="160" y="176" width="8" height="8" fill="#141c2c"/><rect x="168" y="176" width="8" height="8" fill="#141c2c"/><rect x="176" y="176" width="8" height="8" fill="#141c2c"/><rect x="72" y="184" width="8" height="8" fill="#141c2c"/><rect x="80" y="184" width="8" height="8" fill="#141c2c"/><rect x="112" y="184" width="8" height="8" fill="#141c2c"/><rect x="120" y="184" width="8" height="8" fill="#141c2c"/><rect x="144" y="184" width="8" height="8" fill="#141c2c"/><rect x="176" y="184" width="8" height="8" fill="#141c2c"/><rect x="184" y="184" width="8" height="8" fill="#141c2c"/><rect x="192" y="184" width="8" height="8" fill="#141c2c"/><rect x="64" y="192" width="8" height="8" fill="#141c2c"/><rect x="88" y="192" width="8" height="8" fill="#141c2c"/><rect x="96" y="192" width="8" height="8" fill="#141c2c"/><rect x="112" y="192" width="8" height="8" fill="#141c2c"/><rect x="136" y="192" width="8" height="8" fill="#141c2c"/><rect x="152" y="192" width="8" height="8" fill="#141c2c"/><rect x="176" y="192" width="8" height="8" fill="#141c2c"/><rect x="184" y="192" width="8" height="8" fill="#141c2c"/><rect x="192" y="192" width="8" height="8" fill="#141c2c"/></svg>